<svg xmlns="http://www.w3.org/2000/svg" viewBox="0 0 303.4247 56.8809"><defs><style>.b{fill:#010101;}</style></defs><path class="b" d="M19.4176,33.3437l5.3682.8921a32.0941,32.0941,0,0,0,1.4469,3.8951c1.1717,2.0306,5.9769,7.2265,5.9769,7.2265l-7.9107-2.921s-2.28-3.104-2.8871-4.2315C20.789,37.0484,19.4176,33.3437,19.4176,33.3437Z" transform="translate(0)"/><polygon class="b" points="33.763 35.072 36.64 44.312 32.217 44.674 29.445 34.491 33.763 35.072"/><path class="b" d="M9.6337,31.5651c2.75,5.3158,10.1387,14.9607,10.1387,14.9607a2.9879,2.9879,0,0,0,.8774.8225l18.12,8.6246a6.2186,6.2186,0,0,0,7.7024-.9622h0c1.6445-1.92,2.234-2.253,1.63-4.5365l-.0384-.1452a3.7368,3.7368,0,0,0-.2877-.7648c-.5156-1.0164-1.5665-2.9711-1.76-3.31a1.1628,1.1628,0,0,1-.1077-.2511,1.1048,1.1048,0,0,1-.04-.4179c.049-.5793.0735-.8689.6538-6.9741a1.0719,1.0719,0,0,1,.0216-.1373l.0388-.1349.9561-2.6963-5.1914-.9195c-.103.2188-.3437,2.75-.5136,3.6579-.2653,1.417-2.1377,5.462-3.4049,5.5927-8.7951.9073-16.7951-3.0927-16.7951-3.0927a33.4364,33.4364,0,0,1-5.5-8C15.3431,31.3,8.65,29.6627,9.6337,31.5651Z" transform="translate(0)"/><path class="b" d="M16.3337,34.6309" transform="translate(0)"/><path class="b" d="M55.1631,37.06a84.6156,84.6156,0,0,1-13.9392.5359c-4.6015-.1619-9.1724-.5571-13.717-1.1519s-9.062-1.3954-13.5488-2.43A83.6464,83.6464,0,0,1,.6337,29.8809a83.6364,83.6364,0,0,1,13.94-.544q6.9023.2436,13.716,1.16c4.5436.6016,9.061,1.403,13.5477,2.4375A84.6149,84.6149,0,0,1,55.1631,37.06Z" transform="translate(0)"/><path class="b" d="M8.68,30.5847A33.9968,33.9968,0,0,1,11.6786,20.04a25.8678,25.8678,0,0,1,9.06-10.7392,22.55,22.55,0,0,1,12.69-3.78,19.3882,19.3882,0,0,1,9.63,2.3994,17.2964,17.2964,0,0,1,6.81,7.0508,23.0412,23.0412,0,0,1,2.52,11.13,41.0722,41.0722,0,0,1-1.1776,10.0835m-8.8769.4611A34.6459,34.6459,0,0,0,43.5687,27.12q0-7.14-3-10.83a9.5222,9.5222,0,0,0-7.74-3.6894,12.6408,12.6408,0,0,0-8.16,2.85,18.5186,18.5186,0,0,0-5.52,7.9805,30.0155,30.0155,0,0,0-1.84,8.29" transform="translate(0)"/><path class="b" d="M89.4681,38.7607a4.1555,4.1555,0,0,1,.42,1.98,5.1331,5.1331,0,0,1-.42,2.3106,2.2121,2.2121,0,0,1-1.32,1.1094,27.33,27.33,0,0,1-7.92,1.44,15.55,15.55,0,0,1-4.53,8.04,10.6317,10.6317,0,0,1-7.35,3.06q-6.0607,0-8.82-4.62t-2.76-13.38a81.7646,81.7646,0,0,1,1.9205-16.83,52.58,52.58,0,0,1,5.61-15.48Q67.9882.001,73.0883,0a5.1985,5.1985,0,0,1,4.44,2.3711,10.4035,10.4035,0,0,1,1.68,6.1494,27.1955,27.1955,0,0,1-1.86,9.78A38.3851,38.3851,0,0,1,71.1683,28.5a9.0464,9.0464,0,0,1,6.54,3.33,13.6964,13.6964,0,0,1,3,7.4707,36.3408,36.3408,0,0,0,6.72-1.2,2.6545,2.6545,0,0,1,.84-.12A1.311,1.311,0,0,1,89.4681,38.7607Zm-17.58,10.02a8.5163,8.5163,0,0,0,1.92-4.5,8.2734,8.2734,0,0,1-2.85-3.3,9.7646,9.7646,0,0,1-.99-4.32,14.6074,14.6074,0,0,1,.24-2.2793h-.18a4.85,4.85,0,0,0-4.11,2.43,11.41,11.41,0,0,0-1.65,6.51,8.8923,8.8923,0,0,0,1.29,5.22,3.6986,3.6986,0,0,0,3.03,1.8008A4.381,4.381,0,0,0,71.8881,48.78Zm-2.79-39.27a57.354,57.354,0,0,0-2.61,9.6895,121.5467,121.5467,0,0,0-1.8,13.38q3.9594-7.2584,6.3295-12.81a25.6,25.6,0,0,0,2.37-9.87,7.5544,7.5544,0,0,0-.45-2.94q-.45-1.0182-1.23-1.02Q70.5072,5.94,69.098,9.5107Z" transform="translate(0)"/><path class="b" d="M112.7181,43.74a3.7273,3.7273,0,0,1,.45,1.98,5.52,5.52,0,0,1-1.14,3.72,21.9246,21.9246,0,0,1-6.27,4.98,17.3794,17.3794,0,0,1-8.67,2.28q-6.3,0-9.78-3.42t-3.48-9.36a17.3571,17.3571,0,0,1,1.74-7.71,14.2568,14.2568,0,0,1,4.83-5.67,12.151,12.151,0,0,1,6.99-2.1,7.6065,7.6065,0,0,1,5.58,2.07,7.5213,7.5213,0,0,1,2.1,5.6094,9.7012,9.7012,0,0,1-2.97,7.11q-2.97,2.9693-10.05,4.71,1.4985,2.76,5.7,2.76a13.1234,13.1234,0,0,0,6.15-1.89,20.3117,20.3117,0,0,0,5.97-4.95,2.1074,2.1074,0,0,1,1.62-.84A1.3884,1.3884,0,0,1,112.7181,43.74Zm-20.1-6.84a12.03,12.03,0,0,0-1.53,6.24v.12a13.6293,13.6293,0,0,0,5.5795-2.52,4.9521,4.9521,0,0,0,2.04-3.8994,2.61,2.61,0,0,0-.63-1.83,2.2009,2.2009,0,0,0-1.71-.69Q94.1474,34.32,92.618,36.9Z" transform="translate(0)"/><path class="b" d="M109.3573,54.3008a22.9816,22.9816,0,0,1-.93-7.6807,48.8479,48.8479,0,0,1,2.22-14.8193,4.5128,4.5128,0,0,1,1.77-2.5508,6.239,6.239,0,0,1,3.45-.81,3.3933,3.3933,0,0,1,1.68.3,1.2421,1.2421,0,0,1,.48,1.1407,22.8959,22.8959,0,0,1-.9,4.3193q-.6006,2.4009-.96,4.2a42.7386,42.7386,0,0,0-.6,4.44,34.0879,34.0879,0,0,1,4.44-8.4,17.4092,17.4092,0,0,1,4.83-4.62,8.7821,8.7821,0,0,1,4.35-1.38q3.9,0,3.9,3.9a30.1561,30.1561,0,0,1-.54,3.7793,21.9912,21.9912,0,0,0-.48,3q0,2.1021,1.5,2.1006,1.6787,0,4.32-2.6406a2.2952,2.2952,0,0,1,1.62-.7793,1.4,1.4,0,0,1,1.23.6894,3.3105,3.3105,0,0,1,.45,1.83,4.8431,4.8431,0,0,1-1.2,3.48,16.247,16.247,0,0,1-3.93,2.97,9.7938,9.7938,0,0,1-4.77,1.23,6.6222,6.6222,0,0,1-4.83-1.6191A5.8569,5.8569,0,0,1,124.807,42a9.1558,9.1558,0,0,1,.18-1.8q.1194-1.2.12-1.62c0-.6387-.2207-.96-.66-.96q-.9,0-2.37,2.0108a28.1928,28.1928,0,0,0-2.91,5.31,43.0832,43.0832,0,0,0-2.34,6.96,9.3631,9.3631,0,0,1-1.53,3.81,3.4532,3.4532,0,0,1-2.73.99A3.277,3.277,0,0,1,109.3573,54.3008Z" transform="translate(0)"/><path class="b" d="M139.5663,53.8506q-4.8011-3.0293-4.8-9.27a9.2211,9.2211,0,0,1,1.14-5.04,3.76,3.76,0,0,1,3.36-1.7392,4.0213,4.0213,0,0,1,2.64.84,2.6739,2.6739,0,0,1,1.02,2.16,10.8,10.8,0,0,1-.18,2.1,6.6156,6.6156,0,0,1-.09.84,8.4969,8.4969,0,0,0-.09,1.26,4.265,4.265,0,0,0,2.73,4.02,17.9456,17.9456,0,0,0,7.65,1.32q5.0984,0,7.98-1.83a5.7586,5.7586,0,0,0,2.88-5.13,5.0819,5.0819,0,0,0-1.32-3.5108,10.9679,10.9679,0,0,0-3.3-2.46q-1.98-.99-5.58-2.43a62.348,62.348,0,0,1-7.53-3.42,15.6032,15.6032,0,0,1-4.98-4.41,11.31,11.31,0,0,1-2.07-6.93,13.2357,13.2357,0,0,1,2.31-7.6807,14.9607,14.9607,0,0,1,6.66-5.22,25.891,25.891,0,0,1,10.23-1.8594,24.06,24.06,0,0,1,8.04,1.2891,13.05,13.05,0,0,1,5.85,3.9307,9.8157,9.8157,0,0,1,2.19,6.48,11.3768,11.3768,0,0,1-1.14,5.7,3.6748,3.6748,0,0,1-3.36,1.92,3.7171,3.7171,0,0,1-2.61-.96,2.9862,2.9862,0,0,1-1.05-2.28,11.4159,11.4159,0,0,1,.18-2.1q.18-1.8.18-2.28a4.1624,4.1624,0,0,0-2.46-3.84,12.8451,12.8451,0,0,0-6.12-1.32q-5.1613,0-7.89,1.8906a6.0867,6.0867,0,0,0-2.73,5.31,5.7367,5.7367,0,0,0,1.41,3.9,11.6422,11.6422,0,0,0,3.51,2.7q2.1,1.08,5.88,2.58a76.065,76.065,0,0,1,7.32,3.3593,14.5981,14.5981,0,0,1,4.71,4.08,10.2494,10.2494,0,0,1,1.95,6.36,12.55,12.55,0,0,1-5.37,10.89q-5.3709,3.8115-14.37,3.8106Q144.366,56.8809,139.5663,53.8506Z" transform="translate(0)"/><path class="b" d="M177.9369,54.3008a22.9816,22.9816,0,0,1-.93-7.6807,48.8479,48.8479,0,0,1,2.22-14.8193,4.5131,4.5131,0,0,1,1.77-2.5508,6.24,6.24,0,0,1,3.45-.81,3.3933,3.3933,0,0,1,1.68.3,1.2421,1.2421,0,0,1,.48,1.1407,22.8959,22.8959,0,0,1-.9,4.3193q-.6006,2.4009-.96,4.17a41.3586,41.3586,0,0,0-.6,4.41,32.4695,32.4695,0,0,1,3.87-7.92,18.227,18.227,0,0,1,4.62-4.83,8.1192,8.1192,0,0,1,4.47-1.59,3.8658,3.8658,0,0,1,2.97.96,4.2715,4.2715,0,0,1,.87,2.94,38.0361,38.0361,0,0,1-1.14,6.96q-.48,2.1591-.66,3.2392,2.9994-7.38,6.66-10.7392t6.84-3.36q3.9,0,3.9,3.9a48.2806,48.2806,0,0,1-1.32,8.46,41.5682,41.5682,0,0,0-1.14,6.8994q0,2.4009,1.74,2.4a4.687,4.687,0,0,0,2.85-1.47,48.3019,48.3019,0,0,0,4.41-4.77,2.1072,2.1072,0,0,1,1.62-.84,1.3886,1.3886,0,0,1,1.23.72,3.7273,3.7273,0,0,1,.45,1.98,5.52,5.52,0,0,1-1.14,3.72,26.5545,26.5545,0,0,1-5.55,5.22,11.6369,11.6369,0,0,1-6.75,2.04,5.8341,5.8341,0,0,1-4.62-1.77,7.5252,7.5252,0,0,1-1.56-5.13,37.4078,37.4078,0,0,1,.84-6,31.1548,31.1548,0,0,0,.78-5.2207c0-.6387-.22-.96-.66-.96q-.7808,0-2.22,2.0108a29.4975,29.4975,0,0,0-2.88,5.31,43.1415,43.1415,0,0,0-2.34,6.96,9.162,9.162,0,0,1-1.53,3.84,3.5957,3.5957,0,0,1-2.79.96,3.1783,3.1783,0,0,1-2.97-1.89,9.7865,9.7865,0,0,1-.99-4.59,51.8715,51.8715,0,0,1,.6-6.6006q.48-3.8394.48-5.04c0-.6387-.22-.96-.66-.96q-.9,0-2.28,2.16a30.9084,30.9084,0,0,0-2.67,5.5205,52.8926,52.8926,0,0,0-2.07,6.6,9.3631,9.3631,0,0,1-1.53,3.81,3.4532,3.4532,0,0,1-2.73.99A3.277,3.277,0,0,1,177.9369,54.3008Z" transform="translate(0)"/><path class="b" d="M222.9657,54a10.7891,10.7891,0,0,1-2.22-7.08,19.5079,19.5079,0,0,1,2.22-9.09,18.9422,18.9422,0,0,1,5.91-6.8994,13.3261,13.3261,0,0,1,7.83-2.61,2.3421,2.3421,0,0,1,1.77.51,4.33,4.33,0,0,1,.75,1.83,14.1491,14.1491,0,0,1,2.64-.24q2.9385,0,2.94,2.1006a45.0119,45.0119,0,0,1-.9,6,58.1906,58.1906,0,0,0-1.38,9.6,2.1768,2.1768,0,0,0,.45,1.44,1.4529,1.4529,0,0,0,1.17.54,4.5568,4.5568,0,0,0,2.76-1.47,51.4169,51.4169,0,0,0,4.38-4.77,2.107,2.107,0,0,1,1.62-.84,1.3887,1.3887,0,0,1,1.2305.72,3.7273,3.7273,0,0,1,.45,1.98,5.5183,5.5183,0,0,1-1.14,3.72,30.2465,30.2465,0,0,1-5.22,5.16,8.8976,8.8976,0,0,1-5.34,2.1,5.6059,5.6059,0,0,1-3.63-1.35,8.2192,8.2192,0,0,1-2.49-3.69q-3.1209,5.04-7.86,5.04A7.2933,7.2933,0,0,1,222.9657,54Zm10.62-4.92a10.1113,10.1113,0,0,0,1.74-4.14l2.22-11.04a7.2685,7.2685,0,0,0-4.65,1.89,12.7462,12.7462,0,0,0-3.39,4.83,16.2646,16.2646,0,0,0-1.26,6.36,4.2454,4.2454,0,0,0,.75,2.76,2.5457,2.5457,0,0,0,2.07.9A3.2929,3.2929,0,0,0,233.5858,49.08Z" transform="translate(0)"/><path class="b" d="M276.2152,37.5908a3.137,3.137,0,0,1,.93,2.31,4.5312,4.5312,0,0,1-.36,1.68,10.1543,10.1543,0,0,1-2.7,3.7207,5.75,5.75,0,0,1-3.84,1.5,3.8277,3.8277,0,0,1-2.85-1.2,4.4425,4.4425,0,0,1-1.17-3.24q0-1.14.12-2.46a12.8939,12.8939,0,0,0,.12-1.32,1.069,1.069,0,0,0-.21-.72.6581.6581,0,0,0-.51-.24q-.8409,0-2.28,2.0108a29.4975,29.4975,0,0,0-2.88,5.31,43.0928,43.0928,0,0,0-2.34,6.96,9.5081,9.5081,0,0,1-1.5,3.84,3.4956,3.4956,0,0,1-2.76.96,3.2769,3.2769,0,0,1-3.21-2.3994,22.9816,22.9816,0,0,1-.93-7.6807,48.8448,48.8448,0,0,1,2.22-14.8193,4.5131,4.5131,0,0,1,1.77-2.5508,6.24,6.24,0,0,1,3.45-.81,3.3938,3.3938,0,0,1,1.68.3,1.2423,1.2423,0,0,1,.48,1.1407,22.8959,22.8959,0,0,1-.9,4.3193q-.6006,2.4009-.96,4.2a42.793,42.793,0,0,0-.6,4.44,34.0845,34.0845,0,0,1,4.44-8.4,17.6338,17.6338,0,0,1,4.8-4.62,8.55,8.55,0,0,1,4.26-1.38,3.4867,3.4867,0,0,1,2.67.99,4.1034,4.1034,0,0,1,.93,2.91,26.2124,26.2124,0,0,1-.66,4.3194h.54A3.067,3.067,0,0,1,276.2152,37.5908Z" transform="translate(0)"/><path class="b" d="M289.3246,34.1406q-.1209,3-.12,4.68a39.1674,39.1674,0,0,0,.45,6.75,6.5683,6.5683,0,0,0,1.5,3.48,3.9315,3.9315,0,0,0,2.91,1.05,5.6835,5.6835,0,0,0,2.28-.6006,9.4853,9.4853,0,0,0,2.4-1.56,1.9783,1.9783,0,0,1,1.3193-.6,1.3314,1.3314,0,0,1,1.1709.81,3.962,3.962,0,0,1,.4492,1.95,5.7211,5.7211,0,0,1-.4492,2.22,4.4677,4.4677,0,0,1-1.3506,1.8,10.8049,10.8049,0,0,1-7.08,2.58,8.86,8.86,0,0,1-8.34-4.77q-2.641-4.7711-2.64-12.45,0-2.64.18-5.34h-2.34a3.3634,3.3634,0,0,1-2.43-.66,2.9614,2.9614,0,0,1-.63-2.1q0-3.36,2.7-3.36h3.42a58.3716,58.3716,0,0,1,3.12-12.06,27.2087,27.2087,0,0,1,5.07-8.6993q2.97-3.24,6.39-3.24a4.49,4.49,0,0,1,3.96,2.22,10.0626,10.0626,0,0,1,1.44,5.58q0,9.3018-7.8,16.2h6.72a1.9027,1.9027,0,0,1,1.38.42,2.213,2.213,0,0,1,.42,1.56q0,4.1411-6.78,4.1406Zm4.35-22.11a31.9709,31.9709,0,0,0-2.1,6.24,83.7367,83.7367,0,0,0-1.65,8.85,20.4878,20.4878,0,0,0,5.31-6.87,16.6685,16.6685,0,0,0,1.77-6.93q0-3.5391-1.32-3.54Q294.785,9.78,293.6747,12.03Z" transform="translate(0)"/><path class="b" d="M64.6884,32.58s-2.0547,2.3008-8.0547,2.3008-15-2-15-2l-9,4s18,4,27,0C65.7637,34.1564,71.1683,28.5,71.1683,28.5" transform="translate(0)"/><circle class="b" cx="38.1337" cy="4.3809" r="2.5"/><ellipse class="b" cx="27.255" cy="33.0491" rx="2.5024" ry="27.5103" transform="matrix(0.1365, -0.9906, 0.9906, 0.1365, -9.205, 55.5379)"/></svg>