<svg xmlns="http://www.w3.org/2000/svg" xmlns:xlink="http://www.w3.org/1999/xlink" viewBox="0 0 1003.972 426.8404"><defs><style>.a{fill:#da5044;}.b,.d{opacity:0.33;}.b{fill:url(#a);}.c,.g{fill:#3d2d36;}.c{opacity:0.12;}.d{fill:url(#b);}.e{fill:url(#c);}.f,.h{fill:#debac4;}.h{stroke:#debac4;stroke-miterlimit:10;stroke-width:0.1px;}</style><linearGradient id="a" x1="276.999" y1="488.5019" x2="429.2323" y2="400.6099" gradientUnits="userSpaceOnUse"><stop offset="0" stop-color="#3d2d36"/><stop offset="0.5459" stop-color="#3d2d36" stop-opacity="0.4151"/><stop offset="1" stop-color="#3d2d36" stop-opacity="0"/></linearGradient><linearGradient id="b" x1="71.8325" y1="29.736" x2="218.0881" y2="175.9916" gradientUnits="userSpaceOnUse"><stop offset="0" stop-color="#3d2d36"/><stop offset="1" stop-color="#3d2d36" stop-opacity="0"/></linearGradient><linearGradient id="c" x1="108.6536" y1="265.4734" x2="108.6536" y2="305.4734" gradientUnits="userSpaceOnUse"><stop offset="0" stop-color="#da5044"/><stop offset="0.4077" stop-color="#da5044" stop-opacity="0.5677"/><stop offset="0.8154" stop-color="#da5044" stop-opacity="0.161"/><stop offset="1" stop-color="#da5044" stop-opacity="0"/></linearGradient></defs><path class="a" d="M280.27,400.317c2.4428-2.5865,12.1251-12.3258,37-18,8.644-1.9718,46.8935-9.8622,89.3518,13,5.6506,3.0426,8.0622,3.8747,21,14,23,18,37,59,37,59s-27,0-38-2c-13.8093-2.5108-58.4038-18.7558-78.3518-23-47-10-53-1-88,12C248.8577,459.5557,267.718,413.6072,280.27,400.317Z" transform="translate(-49.8464 -41.5266)"/><path class="b" d="M280.4266,400.317c2.4428-2.5865,12.1251-12.3258,37-18,8.644-1.9718,46.8935-9.8622,89.3518,13,5.6505,3.0426,8.0622,3.8747,21,14,23,18,37,59,37,59s-27,0-38-2c-13.8093-2.5108-58.4038-18.7558-78.3518-23-47-10-53-1-88,12C249.0145,459.5557,267.8747,413.6072,280.4266,400.317Z" transform="translate(-49.8464 -41.5266)"/><path class="a" d="M153,190c96,64,126.0281,160.7222,130.0078,181.76a130.5891,130.5891,0,0,1,2.262,24.3206c0,23.0345-6.9274,53.9162-24.25,59C217,468,197.3929,464.7333,162,456,85,437,122,322,153,190Z" transform="translate(-49.8464 -41.5266)"/><path class="c" d="M153,190c96,64,126.0281,160.7222,130.0078,181.76a130.5891,130.5891,0,0,1,2.262,24.3206c0,23.0345-6.9274,53.9162-24.25,59C217,468,197.3929,464.7333,162,456,85,437,122,322,153,190Z" transform="translate(-49.8464 -41.5266)"/><path class="a" d="M137.5634,444.4085c2.2356-28.3035,6.9877-102.2028.0241-148.3276l41.2473,6.3742c2.0316,20.6061-13.243,102.2533-17.2278,150.8911a13.1046,13.1046,0,0,0,12.9042,14.1592h0a13.0731,13.0731,0,0,0,13.246-12.1652c1.791-27.7377,10.312-52.4649,20.0126-95.5649,10.5156-46.7214,7.7934-79.5643,4.7169-97.9427-4.5613-27.2485-8.3825-35.7248-17.9334-62.3063-9.7513-27.1393-4.0694-36.34-1.2835-44.251,5.7065-16.2054,14.5309-23.0448,30-50,8.021-13.9768,9.3031-24.6969,6-28-7-7-23.09,1.3449-35,9-15.0929,9.7009-29.2751,17.4567-33.0335,19.4822a3.721,3.721,0,0,1-2.334.4134c-3.5692-.546-15.102-3.6733-45.6325-20.8956-25-13-38.25-32.5349-45.9415-41.5681a6.1955,6.1955,0,0,0-10.2134,1.156C54.5407,49.78,48.3159,58.177,50.27,77.2753c2.0919,20.4475,9.4309,32.7658,19.3518,49,11,18,24.4192,38.1357,21.8573,70.2828A364.8521,364.8521,0,0,0,98.27,300.2753c5.2488,25.1684,12.0743,64.5856,13.7071,86.7114,1.29,17.48,1.2761,41.8822,1.1208,56.3279a12.2472,12.2472,0,0,0,11.9716,12.3725h0A12.2462,12.2462,0,0,0,137.5634,444.4085Z" transform="translate(-49.8464 -41.5266)"/><path class="d" d="M194.5533,199.5263c-9.7513-27.1393-4.0694-36.34-1.2835-44.251,5.7065-16.2054,14.5309-23.0448,30-50,8.021-13.9768,9.3031-24.6969,6-28-7-7-23.09,1.3449-35,9-15.09,9.6991-29.27,17.4538-33.0314,19.4811a3.7281,3.7281,0,0,1-2.3385.4142c-3.5719-.5471-15.1064-3.6769-45.63-20.8953-25-13-38.25-32.5349-45.9415-41.5681a6.1955,6.1955,0,0,0-10.2134,1.156C54.5407,49.78,48.3159,58.177,50.27,77.2753c2.0919,20.4475,9.4309,32.7658,19.3518,49,0,0,35.243,51.7523,51.3784,60.7247C137.3476,196.09,194.5533,199.5263,194.5533,199.5263Z" transform="translate(-49.8464 -41.5266)"/><polygon class="e" points="88.154 269.473 129.154 265.473 127.154 302.473 89.154 305.473 88.154 269.473"/><path class="f" d="M407.8008,176.5049h24.313l-72.1,171.2646h-5.5313L280.9907,176.5049h24.5762l51.2905,119.751Z" transform="translate(-49.8464 -41.5266)"/><path class="f" d="M500.4731,347.0371V332.6328a51.8183,51.8183,0,0,1-16.1743,12.0527,42.0835,42.0835,0,0,1-18.1274,4.3047,37.7651,37.7651,0,0,1-19.5923-5.31,34.4592,34.4592,0,0,1-13.55-14.4043q-4.5777-9.0909-4.5776-30.2119V234.7324h22.2168v64.0049q0,17.6791,5.0659,24.6885,5.064,7.0107,17.7612,7.01,15.8671,0,26.9775-15.5029v-80.2H522.69V347.0371Z" transform="translate(-49.8464 -41.5266)"/><path class="f" d="M554.4282,176.5049H576.645V347.0371H554.4282Z" transform="translate(-49.8464 -41.5266)"/><path class="f" d="M607.2852,404.2881V234.7324H646.18q29.8682,0,46.5117,14.8926,16.6435,14.8946,16.6445,41.626,0,25.2686-15.664,41.5039-15.6608,16.2363-39.9141,16.2353-10.73,0-23.7676-4.7607v60.0586Zm38.4179-148.8037H629.99v69.0918a46.3427,46.3427,0,0,0,21.4375,5.249q15.59,0,25.52-10.8643,9.9271-10.8631,9.9277-27.9541a39.236,39.236,0,0,0-4.69-19.4091A28.4216,28.4216,0,0,0,669.3955,259.33Q661.2934,255.4844,645.7031,255.4844Z" transform="translate(-49.8464 -41.5266)"/><path class="f" d="M829.4531,292.8379h-78.98q.8525,16.1133,10.8037,25.6348,9.9477,9.5214,25.6963,9.5214,21.9726,0,40.5273-13.6718v21.7285a74.139,74.139,0,0,1-20.3252,9.7656,84.9784,84.9784,0,0,1-23.62,2.93q-18.5567,0-30.0293-7.69a55.9364,55.9364,0,0,1-18.3721-20.69q-6.8979-13.0019-6.8974-30.0908,0-25.6347,14.5273-41.687,14.5254-16.05,37.7188-16.0522,22.3388,0,35.6445,15.625,13.3036,15.6269,13.3066,41.87Zm-78.4922-13.3057h56.52q-.8554-13.3037-7.9356-20.5078-7.081-7.2012-19.0429-7.2021-11.9649,0-19.5918,7.2021Q753.28,266.2284,750.9609,279.5322Z" transform="translate(-49.8464 -41.5266)"/><path class="f" d="M877.3047,234.7324v25.7569l1.2207-1.9532q16.1133-26.001,32.2266-26.0009,12.5712,0,26.2441,12.6953l-11.7188,19.5312q-11.5986-10.9863-21.4843-10.9863-10.7432,0-18.6153,10.2539t-7.873,24.292v58.7158h-22.34V234.7324Z" transform="translate(-49.8464 -41.5266)"/><path class="f" d="M1028.8906,234.7324h24.9278L974.2461,404.2881H949.4473L987.57,322.92l-43.3711-88.1875h25.3164l30.3262,63.4365Z" transform="translate(-49.8464 -41.5266)"/><path class="g" d="M407.8008,176.5049h24.313l-72.1,171.2646h-5.5313L280.9907,176.5049h24.5762l51.2905,119.751Z" transform="translate(-49.8464 -41.5266)"/><path class="g" d="M500.4731,347.0371V332.6328a51.8183,51.8183,0,0,1-16.1743,12.0527,42.0835,42.0835,0,0,1-18.1274,4.3047,37.7651,37.7651,0,0,1-19.5923-5.31,34.4592,34.4592,0,0,1-13.55-14.4043q-4.5777-9.0909-4.5776-30.2119V234.7324h22.2168v64.0049q0,17.6791,5.0659,24.6885,5.064,7.0107,17.7612,7.01,15.8671,0,26.9775-15.5029v-80.2H522.69V347.0371Z" transform="translate(-49.8464 -41.5266)"/><path class="g" d="M554.4282,176.5049H576.645V347.0371H554.4282Z" transform="translate(-49.8464 -41.5266)"/><path class="g" d="M607.2852,404.2881V234.7324H646.18q29.8682,0,46.5117,14.8926,16.6435,14.8946,16.6445,41.626,0,25.2686-15.664,41.5039-15.6608,16.2363-39.9141,16.2353-10.73,0-23.7676-4.7607v60.0586Zm38.4179-148.8037H629.99v69.0918a46.3427,46.3427,0,0,0,21.4375,5.249q15.59,0,25.52-10.8643,9.9271-10.8631,9.9277-27.9541a39.236,39.236,0,0,0-4.69-19.4091A28.4216,28.4216,0,0,0,669.3955,259.33Q661.2934,255.4844,645.7031,255.4844Z" transform="translate(-49.8464 -41.5266)"/><path class="g" d="M829.4531,292.8379h-78.98q.8525,16.1133,10.8037,25.6348,9.9477,9.5214,25.6963,9.5214,21.9726,0,40.5273-13.6718v21.7285a74.139,74.139,0,0,1-20.3252,9.7656,84.9784,84.9784,0,0,1-23.62,2.93q-18.5567,0-30.0293-7.69a55.9364,55.9364,0,0,1-18.3721-20.69q-6.8979-13.0019-6.8974-30.0908,0-25.6347,14.5273-41.687,14.5254-16.05,37.7188-16.0522,22.3388,0,35.6445,15.625,13.3036,15.6269,13.3066,41.87Zm-78.4922-13.3057h56.52q-.8554-13.3037-7.9356-20.5078-7.081-7.2012-19.0429-7.2021-11.9649,0-19.5918,7.2021Q753.28,266.2284,750.9609,279.5322Z" transform="translate(-49.8464 -41.5266)"/><path class="g" d="M877.3047,234.7324v25.7569l1.2207-1.9532q16.1133-26.001,32.2266-26.0009,12.5712,0,26.2441,12.6953l-11.7188,19.5312q-11.5986-10.9863-21.4843-10.9863-10.7432,0-18.6153,10.2539t-7.873,24.292v58.7158h-22.34V234.7324Z" transform="translate(-49.8464 -41.5266)"/><path class="g" d="M1028.8906,234.7324h24.9278L974.2461,404.2881H949.4473L987.57,322.92l-43.3711-88.1875h25.3164l30.3262,63.4365Z" transform="translate(-49.8464 -41.5266)"/><path class="g" d="M199.6433,141.9227c5.4994-9.0947,12.9931-18.1186,23.6265-36.6474,8.021-13.9768,9.3031-24.6969,6-28a9.0014,9.0014,0,0,0-5.232-2.4845C224.0468,74.9946,224,88,215,111,210.7868,121.7671,198.5237,143.7741,199.6433,141.9227Z" transform="translate(-49.8464 -41.5266)"/><path class="h" d="M194.27,86.2753c9.5092-6.1121,21.6832-12.6639,29.7677-11.4939,0,0,1.1012,24.2837-15.4515,36.8552-22.7972,17.3139-44.5662,17.3139-44.5662,17.3139s-1.1086-15.16,16.985-32.9308a75.7205,75.7205,0,0,1,13.265-9.7444" transform="translate(-49.8464 -41.5266)"/><path class="h" d="M427.7784,409.317c23,18,37,59,37,59s-27,0-38-2c-5.0411-.9166-14.1849-3.6634-24.7345-6.9886" transform="translate(-49.8464 -41.5266)"/><path class="h" d="M212.4867,261.8325c-4.5612-27.2484-8.3825-35.7247-17.9334-62.3062l-.8489-2.39s-27.2847,1.8777-42.0828-.0553c-23.0646-3.0127-59.7954-14.2812-60.6123-20.372-.0172-.1285-.0419-.2509-.06-.379a92.7955,92.7955,0,0,1,.5293,20.2282,359.674,359.674,0,0,0,1.4994,71.4971S96,289,156,316c3.7642,1.6939,5.1209,4.2166,16-2C221,286,212.4867,261.8325,212.4867,261.8325Z" transform="translate(-49.8464 -41.5266)"/><path class="h" d="M69.6216,126.2753c-9.9209-16.2342-17.26-28.5525-19.3518-49C48.3159,58.177,54.5407,49.78,57.1149,44.8632a6.1646,6.1646,0,0,1,4.3909-3.2359S56.8335,81.2444,90.7152,123.39c39.624,49.2885,73.3046,68.6176,73.3046,68.6176s-30.1369-2.4969-69.03-32.9266C86.8246,152.6924,69.6216,126.2753,69.6216,126.2753Z" transform="translate(-49.8464 -41.5266)"/><path class="g" d="M166.33,411.6618c-1.9877,14.9911-3.7159,29.3919-4.723,41.6843a13.1047,13.1047,0,0,0,12.9042,14.1593h0a13.0732,13.0732,0,0,0,13.246-12.1652c.83-12.85,3.1039-25.054,6.27-38.7379" transform="translate(-49.8464 -41.5266)"/><path class="g" d="M112.7946,403.4032c.4525,14.2895.4137,29.6248.3031,39.9114a12.2472,12.2472,0,0,0,11.9716,12.3725h0a12.2462,12.2462,0,0,0,12.4941-11.2786c.7414-9.3859,1.76-23.786,2.5353-40.5245" transform="translate(-49.8464 -41.5266)"/><path class="g" d="M193.7044,197.1362S153,202,129,196c-21.8874-5.4719-37.1738-13.2-37.9906-19.291q-.4347-3.241-1.0838-6.3024c-3.7827-17.9833-12.6318-31.5768-20.304-44.1314,0,0,17.203,26.4173,25.3683,32.8057,38.893,30.43,69.03,32.9266,69.03,32.9266Z" transform="translate(-49.8464 -41.5266)"/><path class="g" d="M67.3283,43.7072a6.1955,6.1955,0,0,0-10.2134,1.156A7.5541,7.5541,0,0,0,63,47C65.7038,46.6871,67.3283,43.7072,67.3283,43.7072Z" transform="translate(-49.8464 -41.5266)"/></svg>